HIERARCHY
ROOT Hips
{
  OFFSET 5.84602e-005 68.8428 3.50346
  CHANNELS 6 Xposition Yposition Zposition Zrotation Xrotation Yrotation
  JOINT Spine
  {
    OFFSET 0 8.597 -4.6522
    CHANNELS 3 Zrotation Xrotation Yrotation
    JOINT Spine1
    {
      OFFSET 0 7.8454 0.4098
      CHANNELS 3 Zrotation Xrotation Yrotation
      JOINT Spine2
      {
        OFFSET 0 9.7078 -2.1609
        CHANNELS 3 Zrotation Xrotation Yrotation
        JOINT Neck
        {
          OFFSET 0 21.8761 -0.4549
          CHANNELS 3 Zrotation Xrotation Yrotation
          JOINT Head
          {
            OFFSET 0 12.3537 3.3602
            CHANNELS 3 Zrotation Xrotation Yrotation
            End Site
            {
              OFFSET 0.0001 18.9506 0.5657
            }
          }
        }
        JOINT LeftShoulder
        {
          OFFSET 2.2086 21.1115 7.2329
          CHANNELS 3 Zrotation Xrotation Yrotation
          JOINT LeftArm
          {
            OFFSET 13.1193 3.0282 -4.8998
            CHANNELS 3 Zrotation Xrotation Yrotation
            JOINT LeftForeArm
            {
              OFFSET 27.4081 -0.0973053 -0.2375
              CHANNELS 3 Zrotation Xrotation Yrotation
              JOINT LeftHand
              {
                OFFSET 22.8641 0.0662994 -0.1369
                CHANNELS 3 Zrotation Xrotation Yrotation
                JOINT LeftHandIndex1
                {
                  OFFSET 8.8614 0.775009 2.4612
                  CHANNELS 3 Zrotation Xrotation Yrotation
                  JOINT LeftHandIndex2
                  {
                    OFFSET 3.3146 -0.808304 0.5841
                    CHANNELS 3 Zrotation Xrotation Yrotation
                    JOINT LeftHandIndex3
                    {
                      OFFSET 2.2628 -0.552002 0.3989
                      CHANNELS 3 Zrotation Xrotation Yrotation
                      End Site
                      {
                        OFFSET 1.6102 -0.4807 0.2612
                      }
                    }
                  }
                }
                JOINT LeftHandMiddle1
                {
                  OFFSET 8.9937 0.895004 0.2143
                  CHANNELS 3 Zrotation Xrotation Yrotation
                  JOINT LeftHandMiddle2
                  {
                    OFFSET 4.0984 0.0113983 -0.0242
                    CHANNELS 3 Zrotation Xrotation Yrotation
                    JOINT LeftHandMiddle3
                    {
                      OFFSET 2.2716 0.00689697 -0.0138001
                      CHANNELS 3 Zrotation Xrotation Yrotation
                      End Site
                      {
                        OFFSET 2.0404 -0.1441 0.0027
                      }
                    }
                  }
                }
                JOINT LeftHandRing1
                {
                  OFFSET 8.5234 0.597198 -2.0164
                  CHANNELS 3 Zrotation Xrotation Yrotation
                  JOINT LeftHandRing2
                  {
                    OFFSET 3.7188 -0.188293 -0.2328
                    CHANNELS 3 Zrotation Xrotation Yrotation
                    JOINT LeftHandRing3
                    {
                      OFFSET 2.1191 -0.106598 -0.1332
                      CHANNELS 3 Zrotation Xrotation Yrotation
                      End Site
                      {
                        OFFSET 1.8737 -0.2304 -0.0886
                      }
                    }
                  }
                }
                JOINT LeftHandPinky1
                {
                  OFFSET 7.9094 -0.601089 -3.4825
                  CHANNELS 3 Zrotation Xrotation Yrotation
                  JOINT LeftHandPinky2
                  {
                    OFFSET 2.2874 -0.477005 -0.6314
                    CHANNELS 3 Zrotation Xrotation Yrotation
                    JOINT LeftHandPinky3
                    {
                      OFFSET 1.6774 -0.349396 -0.4633
                      CHANNELS 3 Zrotation Xrotation Yrotation
                      End Site
                      {
                        OFFSET 1.4888 -0.4091 -0.3416
                      }
                    }
                  }
                }
                JOINT LeftHandThumb1
                {
                  OFFSET 1.833 -1.3875 1.3896
                  CHANNELS 3 Zrotation Xrotation Yrotation
                  JOINT LeftHandThumb2
                  {
                    OFFSET 3.4129 -1.121 2.5732
                    CHANNELS 3 Zrotation Xrotation Yrotation
                    JOINT LeftHandThumb3
                    {
                      OFFSET 2.2474 -0.804199 1.6192
                      CHANNELS 3 Zrotation Xrotation Yrotation
                      End Site
                      {
                        OFFSET 1.6527 -0.5689 1.1317
                      }
                    }
                  }
                }
              }
            }
          }
        }
        JOINT RightShoulder
        {
          OFFSET -2.2086 21.1115 7.2329
          CHANNELS 3 Zrotation Xrotation Yrotation
          JOINT RightArm
          {
            OFFSET -13.1216 3.0287 -4.9007
            CHANNELS 3 Zrotation Xrotation Yrotation
            JOINT RightForeArm
            {
              OFFSET -27.4081 -0.0973053 -0.2375
              CHANNELS 3 Zrotation Xrotation Yrotation
              JOINT RightHand
              {
                OFFSET -22.8641 0.0664063 -0.1369
                CHANNELS 3 Zrotation Xrotation Yrotation
                JOINT RightHandIndex1
                {
                  OFFSET -8.8614 0.774994 2.4612
                  CHANNELS 3 Zrotation Xrotation Yrotation
                  JOINT RightHandIndex2
                  {
                    OFFSET -3.3146 -0.808304 0.5841
                    CHANNELS 3 Zrotation Xrotation Yrotation
                    JOINT RightHandIndex3
                    {
                      OFFSET -2.2628 -0.552002 0.3989
                      CHANNELS 3 Zrotation Xrotation Yrotation
                      End Site
                      {
                        OFFSET -1.6102 -0.4807 0.2612
                      }
                    }
                  }
                }
                JOINT RightHandMiddle1
                {
                  OFFSET -8.9937 0.894989 0.2143
                  CHANNELS 3 Zrotation Xrotation Yrotation
                  JOINT RightHandMiddle2
                  {
                    OFFSET -4.0984 0.0113983 -0.0242
                    CHANNELS 3 Zrotation Xrotation Yrotation
                    JOINT RightHandMiddle3
                    {
                      OFFSET -2.2716 0.00691223 -0.0138001
                      CHANNELS 3 Zrotation Xrotation Yrotation
                      End Site
                      {
                        OFFSET -2.0404 -0.1441 0.0027
                      }
                    }
                  }
                }
                JOINT RightHandRing1
                {
                  OFFSET -8.5234 0.597198 -2.0164
                  CHANNELS 3 Zrotation Xrotation Yrotation
                  JOINT RightHandRing2
                  {
                    OFFSET -3.7188 -0.188309 -0.2328
                    CHANNELS 3 Zrotation Xrotation Yrotation
                    JOINT RightHandRing3
                    {
                      OFFSET -2.1191 -0.106598 -0.1332
                      CHANNELS 3 Zrotation Xrotation Yrotation
                      End Site
                      {
                        OFFSET -1.8737 -0.2304 -0.0886
                      }
                    }
                  }
                }
                JOINT RightHandPinky1
                {
                  OFFSET -7.9094 -0.601105 -3.4825
                  CHANNELS 3 Zrotation Xrotation Yrotation
                  JOINT RightHandPinky2
                  {
                    OFFSET -2.2874 -0.477005 -0.6314
                    CHANNELS 3 Zrotation Xrotation Yrotation
                    JOINT RightHandPinky3
                    {
                      OFFSET -1.6774 -0.349396 -0.4633
                      CHANNELS 3 Zrotation Xrotation Yrotation
                      End Site
                      {
                        OFFSET -1.4888 -0.4091 -0.3416
                      }
                    }
                  }
                }
                JOINT RightHandThumb1
                {
                  OFFSET -1.833 -1.38751 1.3896
                  CHANNELS 3 Zrotation Xrotation Yrotation
                  JOINT RightHandThumb2
                  {
                    OFFSET -3.41299 -1.12099 2.5732
                    CHANNELS 3 Zrotation Xrotation Yrotation
                    JOINT RightHandThumb3
                    {
                      OFFSET -2.24741 -0.804108 1.6192
                      CHANNELS 3 Zrotation Xrotation Yrotation
                      End Site
                      {
                        OFFSET -1.6527 -0.5689 1.1317
                      }
                    }
                  }
                }
              }
            }
          }
        }
      }
    }
  }
  JOINT RightUpLeg
  {
    OFFSET -9.1966 3.8861 -0.7581
    CHANNELS 3 Zrotation Xrotation Yrotation
    JOINT RightLeg
    {
      OFFSET -0.7359 -41.0265 0
      CHANNELS 3 Zrotation Xrotation Yrotation
      JOINT RightFoot
      {
        OFFSET 0 -40.2855 0
        CHANNELS 3 Zrotation Xrotation Yrotation
        JOINT RightToeBase
        {
          OFFSET 0 -5.6122 11.7359
          CHANNELS 3 Zrotation Xrotation Yrotation
          End Site
          {
            OFFSET 0 0 7.8731
          }
        }
      }
    }
  }
  JOINT LeftUpLeg
  {
    OFFSET 9.1965 3.8864 -0.7581
    CHANNELS 3 Zrotation Xrotation Yrotation
    JOINT LeftLeg
    {
      OFFSET 0.7359 -41.0268 0
      CHANNELS 3 Zrotation Xrotation Yrotation
      JOINT LeftFoot
      {
        OFFSET 0 -40.2855 0
        CHANNELS 3 Zrotation Xrotation Yrotation
        JOINT LeftToeBase
        {
          OFFSET 0 -5.6122 11.7359
          CHANNELS 3 Zrotation Xrotation Yrotation
          End Site
          {
            OFFSET 0 0 7.8731
          }
        }
      }
    }
  }
}
MOTION
Frames:	5
Frame Time:	0.0333333
39.7526 36.6247 14.0631 -179.72 88.7724 -0.279907 -0.00465562 1.36984 -0.0895879 -0.00717103 2.73969 -0.179141 -0.00717111 2.73967 -0.179141 -7.46258 9.37062 17.8852 0.000186086 0.0850319 -0.121829 -23.5971 -2.85662 -6.66945 -37.5015 54.7665 1.90648 8.83246 34.9333 -15.4026 -0.606732 -5.20578 -3.44625 -7.95139e-016 -3.57812e-015 -0 -7.95139e-016 -3.37934e-015 6.36111e-015 -7.95139e-016 -3.37934e-015 6.36111e-015 -7.95139e-016 -3.57812e-015 -0 -0.0145593 -8.89105e-005 -9.78208e-007 7.95139e-016 -4.96962e-015 -3.18055e-015 -7.95139e-016 -3.57812e-015 -0 -0.0187171 -0.00117351 6.30263e-005 -7.95139e-016 -2.38542e-015 -3.18055e-015 -7.95139e-016 -3.57812e-015 -0 -0.012233 -0.00323823 0.000681843 -2.56609e-007 -1.30539e-007 1.35408e-006 -7.95139e-016 -3.57812e-015 -0 -7.95139e-016 -3.37934e-015 6.36111e-015 -7.95139e-016 -3.37934e-015 6.36111e-015 24.709 -2.70354 6.82325 36.2289 54.7552 -1.92157 -8.64616 34.9556 15.5936 0.500388 -5.22092 3.48681 -1.59028e-015 -1.98785e-015 6.36111e-015 3.97252e-031 -2.38542e-015 9.54166e-015 -7.95139e-016 -1.78906e-015 3.18055e-015 -1.59028e-015 -1.98785e-015 6.36111e-015 0.0149914 -9.10578e-005 -4.16616e-006 -3.31043e-032 -5.96354e-016 -3.18055e-015 -1.59028e-015 -1.98785e-015 6.36111e-015 0.0190242 -0.00119294 -5.90392e-005 3.18055e-015 5.36719e-015 6.36111e-015 -1.59028e-015 -1.98785e-015 6.36111e-015 0.0122791 -0.00324988 -0.000677602 7.95139e-016 -5.96354e-016 9.54166e-015 -1.59028e-015 -1.98785e-015 6.36111e-015 3.97252e-031 -2.38542e-015 9.54166e-015 -7.95139e-016 -1.78906e-015 3.18055e-015 -92.5072 -78.8161 -119.644 0.193511 26.7949 41.0582 -20.6111 5.16156 -8.34409 1.81753e-006 4.2863e-008 -4.8555e-007 91.5111 -76.9059 118.641 -0.336467 26.551 -41.0324 18.8725 4.84429 7.82461 -3.38096e-006 -1.17204e-007 -2.68604e-007 
39.7526 36.6024 13.9904 -179.671 88.9558 -0.329048 -0.00429382 1.25287 -0.0895627 -0.00663056 2.50575 -0.179096 -0.00663053 2.50572 -0.179096 -7.58531 9.30203 17.8435 0.000179732 0.0847331 -0.121421 -23.0395 -2.78978 -6.41165 -38.0774 54.7774 1.96009 8.99364 34.9006 -15.675 -0.826951 -5.01637 -3.33466 2.3173e-031 -4.17448e-015 3.18055e-015 7.95139e-016 -4.37326e-015 3.18055e-015 7.95139e-016 -4.37326e-015 3.18055e-015 2.3173e-031 -4.17448e-015 3.18055e-015 -0.0146261 -8.95772e-005 -1.45307e-005 3.58754e-009 1.31015e-007 2.75861e-006 2.3173e-031 -4.17448e-015 3.18055e-015 -0.0187083 -0.00117318 5.34791e-005 -7.95139e-016 -3.37934e-015 -3.18055e-015 2.3173e-031 -4.17448e-015 3.18055e-015 -0.0122589 -0.00324458 0.000682624 2.38542e-015 -2.98177e-015 -0 2.3173e-031 -4.17448e-015 3.18055e-015 7.95139e-016 -4.37326e-015 3.18055e-015 7.95139e-016 -4.37326e-015 3.18055e-015 24.1115 -2.64521 6.55965 36.8501 54.7667 -1.97448 -8.814 34.9222 15.8593 0.724175 -5.0308 3.37399 7.95139e-016 -1.59028e-015 -3.18055e-015 1.59028e-015 -1.19271e-015 -0 -1.21382e-031 -2.18663e-015 -3.18055e-015 7.95139e-016 -1.59028e-015 -3.18055e-015 0.0150041 -9.08782e-005 3.1598e-006 -5.77923e-008 2.27854e-007 -2.75957e-006 7.95139e-016 -1.59028e-015 -3.18055e-015 0.0190668 -0.00119522 -6.14623e-005 -7.95139e-016 -7.95139e-016 -3.18055e-015 7.95139e-016 -1.59028e-015 -3.18055e-015 0.0122092 -0.00323216 -0.000675007 -7.95139e-016 -9.93923e-016 -3.18055e-015 7.95139e-016 -1.59028e-015 -3.18055e-015 1.59028e-015 -1.19271e-015 -0 -1.21382e-031 -2.18663e-015 -3.18055e-015 -92.4993 -78.8172 -119.634 0.19369 26.6671 41.0615 -20.609 5.16286 -8.34395 -1.9026e-006 -1.1177e-007 8.96263e-007 91.5005 -76.9074 118.629 -0.340732 26.4179 -41.0347 18.8698 4.8463 7.82439 1.81823e-006 -4.44688e-008 -4.82495e-007 
39.7526 36.58 13.9177 -179.601 89.1391 -0.39912 -0.00393131 1.13596 -0.0895419 -0.0060885 2.27195 -0.179059 -0.0060885 2.2719 -0.179059 -7.70795 9.23301 17.8016 0.00017883 0.0844524 -0.121016 -22.4823 -2.72077 -6.15468 -38.6533 54.7879 2.01386 9.15456 34.8672 -15.9472 -1.04746 -4.82741 -3.22234 7.95139e-016 1.98785e-016 6.36111e-015 -1.2595e-007 3.02853e-007 2.74628e-006 -2.55906e-007 -1.31709e-007 1.3546e-006 7.95139e-016 1.98785e-016 6.36111e-015 -0.0146 -8.90256e-005 -1.86459e-006 -2.57128e-007 -1.31889e-007 1.35458e-006 7.95139e-016 1.98785e-016 6.36111e-015 -0.0186874 -0.00117169 5.40239e-005 -7.95139e-016 7.95139e-016 -3.18055e-015 7.95139e-016 1.98785e-016 6.36111e-015 -0.0123308 -0.00326338 0.000686595 -7.95139e-016 7.95139e-016 -0 7.95139e-016 1.98785e-016 6.36111e-015 -1.2595e-007 3.02853e-007 2.74628e-006 -2.55906e-007 -1.31709e-007 1.3546e-006 23.5145 -2.58446 6.2969 37.4714 54.7779 -2.02764 -8.9816 34.8882 16.1248 0.948257 -4.84113 3.2604 -5.64075e-008 2.2948e-007 -2.75909e-006 -7.06295e-008 5.11115e-007 -5.43477e-006 7.95139e-016 -3.97569e-016 6.36111e-015 -5.64075e-008 2.2948e-007 -2.75909e-006 0.014976 -9.09343e-005 2.95178e-006 5.83766e-008 -2.29132e-007 2.75912e-006 -5.64075e-008 2.2948e-007 -2.75909e-006 0.0189922 -0.00119104 -4.97359e-005 1.59028e-015 -7.95139e-016 3.18055e-015 -5.64075e-008 2.2948e-007 -2.75909e-006 0.0122694 -0.00324837 -0.000675216 -7.15625e-015 2.70347e-014 9.54166e-015 -5.64075e-008 2.2948e-007 -2.75909e-006 -7.06295e-008 5.11115e-007 -5.43477e-006 7.95139e-016 -3.97569e-016 6.36111e-015 -92.4918 -78.8182 -119.625 0.193859 26.5395 41.0649 -20.607 5.1641 -8.34382 -8.5177e-008 -6.90676e-008 4.11874e-007 91.4899 -76.9089 118.617 -0.344953 26.2847 -41.037 18.8671 4.8483 7.82418 9.37769e-008 -1.64722e-006 2.76464e-007 
39.7526 36.5576 13.8451 -179.493 89.3225 -0.507121 -0.00356857 1.01899 -0.0895158 -0.00554596 2.03803 -0.17901 -0.00554595 2.03801 -0.179011 -7.83076 9.16437 17.7597 0.000179107 0.0841643 -0.120609 -21.9256 -2.64897 -5.89835 -39.2294 54.7982 2.06784 9.31523 34.8333 -16.2192 -1.26828 -4.63889 -3.10937 9.93129e-032 -1.78906e-015 3.18055e-015 1.32417e-031 -2.38542e-015 3.18055e-015 -7.95139e-016 -2.78299e-015 6.36111e-015 9.93129e-032 -1.78906e-015 3.18055e-015 -0.0145808 -8.88437e-005 -2.73752e-006 -7.95139e-016 2.78299e-015 -3.18055e-015 9.93129e-032 -1.78906e-015 3.18055e-015 -0.0187749 -0.00117683 5.65957e-005 1.10348e-032 1.98785e-016 -3.18055e-015 9.93129e-032 -1.78906e-015 3.18055e-015 -0.0122139 -0.00323375 0.000676779 4.2953e-009 1.34456e-007 2.75785e-006 9.93129e-032 -1.78906e-015 3.18055e-015 1.32417e-031 -2.38542e-015 3.18055e-015 -7.95139e-016 -2.78299e-015 6.36111e-015 22.9178 -2.52068 6.03471 38.0928 54.7887 -2.08097 -9.14894 34.8536 16.39 1.17264 -4.65192 3.14617 7.95139e-016 2.18663e-015 -0 -7.95139e-016 2.18663e-015 -3.18055e-015 1.32417e-031 2.38542e-015 -3.18055e-015 7.95139e-016 2.18663e-015 -0 0.0149838 -9.08582e-005 1.30334e-006 -7.95139e-016 -2.60408e-014 -6.36111e-015 7.95139e-016 2.18663e-015 -0 0.0190164 -0.00119216 -6.13721e-005 1.59028e-015 3.57812e-015 3.18055e-015 7.95139e-016 2.18663e-015 -0 0.0122682 -0.00324689 -0.000676507 -8.74653e-015 2.60408e-014 3.18055e-015 7.95139e-016 2.18663e-015 -0 -7.95139e-016 2.18663e-015 -3.18055e-015 1.32417e-031 2.38542e-015 -3.18055e-015 -92.4839 -78.8193 -119.615 0.194021 26.4116 41.0683 -20.6048 5.16545 -8.34368 1.19271e-014 9.54166e-015 -1.59028e-015 91.479 -76.9105 118.604 -0.34914 26.1515 -41.0393 18.8644 4.85034 7.82395 7.59547e-007 -6.41544e-007 -5.42294e-007 
39.7526 36.5352 13.7726 -179.305 89.5058 -0.695262 -0.00320584 0.902091 -0.0894929 -0.00500318 1.80422 -0.178969 -0.00500317 1.80421 -0.178969 -7.95348 9.09569 17.7177 0.000179642 0.0838856 -0.120204 -21.3694 -2.57492 -5.64288 -39.8054 54.8081 2.122 9.47561 34.7987 -16.4909 -1.48939 -4.45081 -2.9957 -2.55578e-007 -1.34045e-007 1.35497e-006 1.59028e-015 7.95139e-016 -3.18055e-015 3.18055e-015 3.97569e-016 -3.18055e-015 -2.55578e-007 -1.34045e-007 1.35497e-006 -0.0146054 -8.92961e-005 -1.09428e-006 -7.95139e-016 4.57205e-015 6.36111e-015 -2.55578e-007 -1.34045e-007 1.35497e-006 -0.0187484 -0.00117517 6.34791e-005 -1.10348e-031 -1.98785e-015 -3.18055e-015 -2.55578e-007 -1.34045e-007 1.35497e-006 -0.0123504 -0.00326979 0.000671934 5.51738e-032 9.93923e-016 -3.18055e-015 -2.55578e-007 -1.34045e-007 1.35497e-006 1.59028e-015 7.95139e-016 -3.18055e-015 3.18055e-015 3.97569e-016 -3.18055e-015 22.3217 -2.45441 5.77339 38.7142 54.7992 -2.1345 -9.316 34.8184 16.655 1.39733 -4.46316 3.03117 -5.71634e-008 2.33201e-007 -2.75845e-006 -7.15328e-008 5.33479e-008 -1.34355e-006 3.18055e-015 -2.98177e-015 3.18055e-015 -5.71634e-008 2.33201e-007 -2.75845e-006 0.0149851 -9.10481e-005 -7.55695e-006 -7.95139e-016 -1.59028e-015 -6.36111e-015 -5.71634e-008 2.33201e-007 -2.75845e-006 0.0189638 -0.00118917 -6.00322e-005 3.31043e-032 -5.96354e-016 3.18055e-015 -5.71634e-008 2.33201e-007 -2.75845e-006 0.0122202 -0.00323591 -0.000665532 -1.59028e-015 -3.37934e-015 -0 -5.71634e-008 2.33201e-007 -2.75845e-006 -7.15328e-008 5.33479e-008 -1.34355e-006 3.18055e-015 -2.98177e-015 3.18055e-015 -92.4759 -78.8205 -119.606 0.194173 26.2837 41.0717 -20.6027 5.16679 -8.34353 -8.571e-008 -6.94652e-008 4.11686e-007 91.4678 -76.9121 118.591 -0.353311 26.018 -41.0417 18.8616 4.85244 7.82373 -1.56894e-006 1.41287e-006 -1.44558e-006 
